<mxfile host="app.diagrams.net" agent="Mozilla/5.0 (Windows NT 10.0; Win64; x64) AppleWebKit/537.36 (KHTML, like Gecko) Chrome/136.0.0.0 Safari/537.36" version="27.0.2">
  <diagram name="Página-1" id="rSu4PUZwyo72S_EhJZO-">
    <mxGraphModel dx="635" dy="514" grid="1" gridSize="10" guides="1" tooltips="1" connect="1" arrows="1" fold="1" page="1" pageScale="1" pageWidth="827" pageHeight="1169" math="0" shadow="0">
      <root>
        <mxCell id="0" />
        <mxCell id="1" parent="0" />
        <mxCell id="hHr_FQHaSUbndE6EKDq0-15" style="edgeStyle=orthogonalEdgeStyle;rounded=0;orthogonalLoop=1;jettySize=auto;html=1;exitX=0.5;exitY=1;exitDx=0;exitDy=0;exitPerimeter=0;entryX=0.5;entryY=0;entryDx=0;entryDy=0;" parent="1" source="hHr_FQHaSUbndE6EKDq0-1" target="hHr_FQHaSUbndE6EKDq0-2" edge="1">
          <mxGeometry relative="1" as="geometry" />
        </mxCell>
        <mxCell id="hHr_FQHaSUbndE6EKDq0-1" value="&lt;font style=&quot;font-size: 16px;&quot;&gt;Pesquisa de Campo&lt;/font&gt;" style="shape=note;whiteSpace=wrap;html=1;backgroundOutline=1;darkOpacity=0.05;fillColor=#d5e8d4;strokeColor=#82b366;" parent="1" vertex="1">
          <mxGeometry x="365" y="40" width="97" height="121.25" as="geometry" />
        </mxCell>
        <mxCell id="BK-b-YuCehh-7s2laq1p-2" style="edgeStyle=orthogonalEdgeStyle;rounded=0;orthogonalLoop=1;jettySize=auto;html=1;exitX=1;exitY=0.5;exitDx=0;exitDy=0;entryX=0;entryY=0.5;entryDx=0;entryDy=0;" edge="1" parent="1" source="hHr_FQHaSUbndE6EKDq0-2" target="BK-b-YuCehh-7s2laq1p-1">
          <mxGeometry relative="1" as="geometry" />
        </mxCell>
        <mxCell id="hHr_FQHaSUbndE6EKDq0-2" value="&lt;font style=&quot;font-size: 16px;&quot;&gt;Desenvolvimento&lt;/font&gt;&lt;div&gt;&lt;font style=&quot;font-size: 16px;&quot;&gt;do Hardware&lt;/font&gt;&lt;/div&gt;" style="shape=step;perimeter=stepPerimeter;whiteSpace=wrap;html=1;fixedSize=1;" parent="1" vertex="1">
          <mxGeometry x="40" y="200" width="180" height="120" as="geometry" />
        </mxCell>
        <mxCell id="BK-b-YuCehh-7s2laq1p-4" style="edgeStyle=orthogonalEdgeStyle;rounded=0;orthogonalLoop=1;jettySize=auto;html=1;exitX=0.5;exitY=1;exitDx=0;exitDy=0;entryX=0.5;entryY=0;entryDx=0;entryDy=0;" edge="1" parent="1" source="hHr_FQHaSUbndE6EKDq0-3" target="hHr_FQHaSUbndE6EKDq0-9">
          <mxGeometry relative="1" as="geometry" />
        </mxCell>
        <mxCell id="hHr_FQHaSUbndE6EKDq0-3" value="&lt;span style=&quot;font-size: 16px;&quot;&gt;Deteção&lt;/span&gt;&lt;div&gt;&lt;span style=&quot;font-size: 16px;&quot;&gt;&amp;nbsp;de som&lt;/span&gt;&lt;/div&gt;" style="shape=step;perimeter=stepPerimeter;whiteSpace=wrap;html=1;fixedSize=1;" parent="1" vertex="1">
          <mxGeometry x="365" y="400" width="180" height="120" as="geometry" />
        </mxCell>
        <mxCell id="hHr_FQHaSUbndE6EKDq0-19" style="edgeStyle=orthogonalEdgeStyle;rounded=0;orthogonalLoop=1;jettySize=auto;html=1;exitX=0.5;exitY=1;exitDx=0;exitDy=0;entryX=0.5;entryY=0;entryDx=0;entryDy=0;" parent="1" source="hHr_FQHaSUbndE6EKDq0-4" target="hHr_FQHaSUbndE6EKDq0-18" edge="1">
          <mxGeometry relative="1" as="geometry" />
        </mxCell>
        <mxCell id="hHr_FQHaSUbndE6EKDq0-4" value="&lt;span style=&quot;font-size: 16px;&quot;&gt;Identificação&lt;/span&gt;&lt;div&gt;&lt;div&gt;&lt;span style=&quot;font-size: 16px;&quot;&gt;&amp;nbsp;de som&lt;/span&gt;&lt;/div&gt;&lt;/div&gt;" style="shape=step;perimeter=stepPerimeter;whiteSpace=wrap;html=1;fixedSize=1;" parent="1" vertex="1">
          <mxGeometry x="500" y="750" width="180" height="120" as="geometry" />
        </mxCell>
        <mxCell id="hHr_FQHaSUbndE6EKDq0-25" style="edgeStyle=orthogonalEdgeStyle;rounded=0;orthogonalLoop=1;jettySize=auto;html=1;entryX=0.5;entryY=0;entryDx=0;entryDy=0;" parent="1" source="hHr_FQHaSUbndE6EKDq0-6" target="hHr_FQHaSUbndE6EKDq0-7" edge="1">
          <mxGeometry relative="1" as="geometry" />
        </mxCell>
        <mxCell id="hHr_FQHaSUbndE6EKDq0-6" value="&lt;span style=&quot;font-size: 16px;&quot;&gt;Desenvolvimento&lt;/span&gt;&lt;div&gt;&lt;span style=&quot;font-size: 16px;&quot;&gt;Mobile&lt;/span&gt;&lt;/div&gt;" style="shape=step;perimeter=stepPerimeter;whiteSpace=wrap;html=1;fixedSize=1;" parent="1" vertex="1">
          <mxGeometry x="570" y="1240" width="180" height="120" as="geometry" />
        </mxCell>
        <mxCell id="hHr_FQHaSUbndE6EKDq0-7" value="&lt;span style=&quot;font-size: 16px;&quot;&gt;Avaliação de Resultados&lt;/span&gt;" style="shape=step;perimeter=stepPerimeter;whiteSpace=wrap;html=1;fixedSize=1;" parent="1" vertex="1">
          <mxGeometry x="320" y="1430" width="180" height="120" as="geometry" />
        </mxCell>
        <mxCell id="BK-b-YuCehh-7s2laq1p-5" style="edgeStyle=orthogonalEdgeStyle;rounded=0;orthogonalLoop=1;jettySize=auto;html=1;exitX=1;exitY=0.5;exitDx=0;exitDy=0;entryX=0;entryY=0.5;entryDx=0;entryDy=0;" edge="1" parent="1" source="hHr_FQHaSUbndE6EKDq0-9" target="BK-b-YuCehh-7s2laq1p-7">
          <mxGeometry relative="1" as="geometry">
            <mxPoint x="400" y="629.4705882352941" as="targetPoint" />
          </mxGeometry>
        </mxCell>
        <mxCell id="hHr_FQHaSUbndE6EKDq0-9" value="Microfone I2S para detectar o som" style="shape=hexagon;perimeter=hexagonPerimeter2;whiteSpace=wrap;html=1;fixedSize=1;" parent="1" vertex="1">
          <mxGeometry x="140" y="590" width="120" height="80" as="geometry" />
        </mxCell>
        <mxCell id="BK-b-YuCehh-7s2laq1p-10" style="edgeStyle=orthogonalEdgeStyle;rounded=0;orthogonalLoop=1;jettySize=auto;html=1;exitX=0.625;exitY=1;exitDx=0;exitDy=0;" edge="1" parent="1" source="hHr_FQHaSUbndE6EKDq0-18" target="BK-b-YuCehh-7s2laq1p-9">
          <mxGeometry relative="1" as="geometry" />
        </mxCell>
        <mxCell id="hHr_FQHaSUbndE6EKDq0-18" value="YAMNET" style="shape=hexagon;perimeter=hexagonPerimeter2;whiteSpace=wrap;html=1;fixedSize=1;" parent="1" vertex="1">
          <mxGeometry x="160" y="920" width="120" height="80" as="geometry" />
        </mxCell>
        <mxCell id="BK-b-YuCehh-7s2laq1p-3" style="edgeStyle=orthogonalEdgeStyle;rounded=0;orthogonalLoop=1;jettySize=auto;html=1;exitX=0.5;exitY=1;exitDx=0;exitDy=0;entryX=0.5;entryY=0;entryDx=0;entryDy=0;" edge="1" parent="1" source="BK-b-YuCehh-7s2laq1p-1" target="hHr_FQHaSUbndE6EKDq0-3">
          <mxGeometry relative="1" as="geometry" />
        </mxCell>
        <mxCell id="BK-b-YuCehh-7s2laq1p-1" value="Raspberry" style="shape=hexagon;perimeter=hexagonPerimeter2;whiteSpace=wrap;html=1;fixedSize=1;" vertex="1" parent="1">
          <mxGeometry x="470" y="230" width="120" height="80" as="geometry" />
        </mxCell>
        <mxCell id="BK-b-YuCehh-7s2laq1p-8" style="edgeStyle=orthogonalEdgeStyle;rounded=0;orthogonalLoop=1;jettySize=auto;html=1;exitX=0.5;exitY=1;exitDx=0;exitDy=0;entryX=0.5;entryY=0;entryDx=0;entryDy=0;" edge="1" parent="1" source="BK-b-YuCehh-7s2laq1p-7" target="hHr_FQHaSUbndE6EKDq0-4">
          <mxGeometry relative="1" as="geometry" />
        </mxCell>
        <mxCell id="BK-b-YuCehh-7s2laq1p-7" value="sounddevice&lt;div&gt;x&lt;br&gt;&lt;div&gt;pyaudio&lt;/div&gt;&lt;/div&gt;" style="shape=hexagon;perimeter=hexagonPerimeter2;whiteSpace=wrap;html=1;fixedSize=1;" vertex="1" parent="1">
          <mxGeometry x="425" y="590" width="120" height="80" as="geometry" />
        </mxCell>
        <mxCell id="BK-b-YuCehh-7s2laq1p-9" value="Enviar notificação&lt;div&gt;firebase cloud ou webserver&lt;/div&gt;" style="shape=hexagon;perimeter=hexagonPerimeter2;whiteSpace=wrap;html=1;fixedSize=1;" vertex="1" parent="1">
          <mxGeometry x="350" y="1010" width="120" height="80" as="geometry" />
        </mxCell>
        <mxCell id="BK-b-YuCehh-7s2laq1p-13" style="edgeStyle=orthogonalEdgeStyle;rounded=0;orthogonalLoop=1;jettySize=auto;html=1;exitX=0.5;exitY=1;exitDx=0;exitDy=0;exitPerimeter=0;entryX=0.5;entryY=0;entryDx=0;entryDy=0;" edge="1" parent="1" source="BK-b-YuCehh-7s2laq1p-11" target="hHr_FQHaSUbndE6EKDq0-6">
          <mxGeometry relative="1" as="geometry" />
        </mxCell>
        <mxCell id="BK-b-YuCehh-7s2laq1p-11" value="Integração" style="shape=cylinder3;whiteSpace=wrap;html=1;boundedLbl=1;backgroundOutline=1;size=15;" vertex="1" parent="1">
          <mxGeometry x="510" y="1080" width="60" height="80" as="geometry" />
        </mxCell>
        <mxCell id="BK-b-YuCehh-7s2laq1p-12" style="edgeStyle=orthogonalEdgeStyle;rounded=0;orthogonalLoop=1;jettySize=auto;html=1;exitX=0.625;exitY=1;exitDx=0;exitDy=0;entryX=0.5;entryY=0;entryDx=0;entryDy=0;entryPerimeter=0;" edge="1" parent="1" source="BK-b-YuCehh-7s2laq1p-9" target="BK-b-YuCehh-7s2laq1p-11">
          <mxGeometry relative="1" as="geometry" />
        </mxCell>
      </root>
    </mxGraphModel>
  </diagram>
</mxfile>
